<?xml version="1.0" standalone="no"?>
<!DOCTYPE svg PUBLIC "-//W3C//DTD SVG 20010904//EN"
 "http://www.w3.org/TR/2001/REC-SVG-20010904/DTD/svg10.dtd">
<svg version="1.0" xmlns="http://www.w3.org/2000/svg"
 width="643.000000pt" height="222.000000pt" viewBox="0 0 643.000000 222.000000"
 preserveAspectRatio="xMidYMid meet">

<g transform="translate(0.000000,222.000000) scale(0.100000,-0.100000)"
fill="#ffffff" stroke="none">
<path d="M2454 2083 c-15 -23 -19 -53 -22 -180 l-4 -152 -33 -11 c-19 -6 -50
-8 -70 -4 -28 5 -51 0 -101 -21 -35 -15 -64 -30 -64 -34 0 -18 50 -32 152 -41
61 -6 113 -12 115 -13 1 -2 4 -302 6 -667 3 -535 7 -677 18 -724 20 -82 58
-89 59 -10 0 16 4 34 9 40 9 9 12 29 29 169 5 44 8 325 7 623 -1 422 1 547 11
556 7 7 59 18 115 25 115 14 139 23 139 51 0 24 -39 37 -153 49 -48 6 -91 12
-96 15 -4 3 -11 56 -15 118 -6 99 -11 121 -39 176 -17 34 -34 62 -38 62 -4 0
-15 -12 -25 -27z"/>
<path d="M4474 1903 c-30 -136 -61 -201 -122 -259 -52 -50 -78 -59 -215 -73
-61 -6 -110 -17 -130 -28 -49 -28 -79 -98 -90 -212 -12 -134 -14 -140 -52
-178 -29 -29 -40 -33 -83 -33 -28 0 -53 3 -55 8 -12 19 -16 250 -7 355 14 162
-10 326 -44 298 -13 -11 -48 -99 -61 -156 -16 -71 -33 -274 -26 -311 5 -21 9
-73 10 -115 l2 -75 -33 -15 c-25 -11 -34 -21 -36 -44 -3 -27 2 -34 35 -51 l38
-20 -3 -65 c-1 -35 -7 -89 -13 -121 -20 -102 21 -586 53 -625 25 -31 30 -17
53 142 9 67 15 188 16 314 0 207 9 344 22 357 13 13 82 12 109 -2 43 -22 56
-51 73 -164 35 -222 58 -258 183 -270 118 -12 213 -40 331 -98 70 -35 200
-162 229 -224 12 -27 27 -48 33 -48 6 0 8 7 5 15 -3 9 -13 43 -22 77 -41 159
-108 236 -272 314 -121 58 -168 72 -279 84 -40 4 -80 13 -88 20 -11 9 -15 32
-15 81 0 110 -19 215 -47 256 -22 32 -23 37 -9 45 22 12 43 94 57 218 15 145
15 146 136 153 54 3 112 11 128 17 43 16 123 98 146 149 22 47 45 162 52 254
4 62 1 73 -9 30z"/>
<path d="M4638 1748 c-45 -70 -62 -193 -30 -220 29 -25 53 -29 78 -13 22 14
24 22 24 96 0 80 -12 122 -43 147 -12 10 -17 8 -29 -10z"/>
<path d="M762 1653 c-34 -17 -42 -45 -19 -74 23 -30 56 -39 146 -39 l91 0 0
-317 c0 -175 5 -416 12 -537 12 -218 12 -219 -9 -236 -40 -32 -244 -33 -275
-2 -8 8 -15 72 -20 175 -9 200 -16 241 -45 245 -14 2 -23 -4 -28 -17 -3 -11
-7 -107 -8 -213 -3 -291 0 -295 255 -285 174 6 199 14 217 70 18 57 22 154 27
637 2 261 8 478 13 483 4 4 40 11 80 14 78 6 102 20 94 53 -11 40 -46 47 -278
53 -188 5 -225 3 -253 -10z"/>
<path d="M1453 1635 c-33 -23 -29 -59 9 -86 27 -20 45 -23 122 -24 l91 0 6
-405 c4 -223 10 -463 14 -535 10 -170 12 -168 -150 -168 -128 -1 -131 0 -155
66 -13 36 -19 42 -45 42 -27 0 -30 -4 -36 -40 -9 -49 18 -117 52 -135 15 -8
76 -12 188 -11 144 1 169 4 191 19 58 43 60 62 68 684 4 262 10 479 14 483 3
4 41 12 84 19 95 14 113 32 71 73 l-27 28 -238 3 c-205 3 -240 1 -259 -13z"/>
<path d="M4608 1398 c-21 -21 -21 -25 -14 -212 7 -224 17 -315 47 -434 22 -90
41 -132 60 -132 14 0 9 736 -5 765 -19 41 -55 46 -88 13z"/>
<path d="M1944 1382 c-35 -28 -44 -54 -34 -98 5 -21 10 -164 10 -317 0 -318 2
-330 75 -372 36 -22 54 -25 132 -25 83 0 93 2 129 28 71 52 69 39 71 316 3
266 7 370 18 398 5 13 -3 28 -28 53 -67 67 -132 35 -107 -54 13 -47 13 -229 0
-423 -12 -175 -19 -188 -94 -188 -67 0 -67 0 -72 358 -3 212 -8 319 -15 328
-16 19 -60 17 -85 -4z"/>
<path d="M4205 1385 c-74 -26 -78 -39 -72 -206 3 -93 1 -181 -8 -245 -13 -102
-9 -125 24 -151 21 -16 54 -16 69 -1 7 7 12 31 12 54 0 49 8 54 86 54 44 0 54
-3 55 -17 0 -10 1 -54 2 -99 2 -87 12 -107 61 -120 51 -12 57 5 51 145 -3 69
-8 162 -12 206 -8 92 -8 127 -2 245 4 76 2 88 -17 108 -12 12 -36 27 -55 32
-49 14 -147 11 -194 -5z m159 -115 l29 -29 -13 -108 c-8 -65 -19 -115 -28
-125 -20 -24 -64 -23 -93 1 -23 18 -24 26 -26 142 -1 68 3 132 9 142 15 28 84
15 122 -23z"/>
<path d="M1509 1363 c-38 -10 -46 -50 -43 -238 1 -99 6 -210 9 -246 7 -63 6
-69 -19 -102 -31 -40 -98 -59 -123 -34 -13 12 -19 151 -23 494 0 18 -39 26
-69 13 -37 -15 -50 -46 -38 -90 5 -19 8 -127 8 -239 -1 -113 1 -213 5 -223 3
-10 24 -31 47 -45 36 -23 53 -26 127 -27 152 -1 186 38 173 197 -4 51 -7 99
-5 107 1 8 7 105 12 215 9 183 9 201 -7 213 -17 12 -25 13 -54 5z"/>
<path d="M2743 1324 c-26 -10 -55 -31 -75 -56 -32 -41 -32 -41 -30 -147 2 -58
5 -113 7 -121 9 -28 105 -64 185 -70 l75 -5 9 -38 c6 -24 6 -48 0 -65 l-10
-27 -106 3 c-104 4 -107 3 -123 -21 -15 -23 -15 -28 -1 -55 18 -35 50 -49 130
-56 51 -4 68 -1 114 22 68 33 122 98 115 139 -3 15 -6 67 -7 114 0 55 -6 92
-14 102 -11 13 -38 17 -139 19 -102 2 -128 6 -136 19 -14 23 -1 64 31 99 26
28 31 30 140 36 l112 7 0 42 c0 23 -6 47 -13 53 -6 6 -59 13 -117 16 -81 4
-115 2 -147 -10z"/>
<path d="M4905 1328 c-48 -17 -84 -47 -104 -86 -15 -31 -17 -54 -13 -137 2
-55 9 -105 14 -112 24 -30 121 -63 183 -63 57 0 63 -2 73 -25 17 -36 15 -81
-4 -100 -14 -13 -31 -15 -114 -9 -97 7 -98 6 -114 -18 -35 -54 21 -103 127
-112 87 -7 160 29 213 105 24 35 25 41 15 89 -6 28 -8 76 -5 106 6 44 3 58
-11 74 -16 18 -31 20 -142 20 -120 0 -124 1 -134 23 -8 18 -7 32 4 60 23 54
48 65 170 73 114 7 110 5 110 59 0 29 -3 34 -22 44 -28 15 -210 22 -246 9z"/>
<path d="M5665 1291 c-36 -5 -40 -9 -43 -39 -3 -29 1 -34 32 -47 24 -10 36
-23 40 -42 3 -16 5 -143 5 -283 -1 -140 2 -294 6 -342 7 -82 9 -87 26 -77 14
7 19 6 19 -3 1 -24 18 15 35 82 14 52 18 121 20 345 2 154 4 286 4 293 1 9 18
12 63 10 61 -3 63 -4 69 -33 10 -48 10 -260 -1 -380 -12 -140 -15 -253 -7
-261 22 -22 61 71 93 216 23 109 35 278 28 403 -7 118 -7 118 -39 143 -31 23
-38 24 -171 23 -76 -1 -157 -5 -179 -8z"/>
<path d="M5254 1275 c-10 -24 15 -89 39 -105 31 -19 125 -13 162 10 16 11 47
27 68 36 43 19 45 24 16 50 -18 16 -40 20 -150 23 -113 3 -130 1 -135 -14z"/>
<path d="M3102 1212 c-10 -7 -10 -38 -2 -153 6 -79 8 -179 5 -221 -6 -74 -5
-77 24 -110 29 -32 32 -33 121 -37 69 -2 103 1 136 14 72 27 78 45 71 193 -3
70 -2 158 4 196 11 82 6 102 -25 110 -13 3 -30 8 -38 11 -35 13 -40 -8 -43
-203 -2 -105 -6 -200 -10 -211 -10 -33 -84 -29 -125 6 l-32 27 6 75 c12 147 9
272 -5 287 -18 17 -70 27 -87 16z"/>
<path d="M5261 1051 c-18 -12 -7 -71 18 -103 17 -20 27 -23 86 -21 65 3 154
31 185 60 13 11 12 15 -5 32 -28 27 -252 52 -284 32z"/>
<path d="M5263 819 c-17 -17 -16 -44 2 -79 18 -35 43 -50 83 -50 36 0 122 28
143 47 9 8 30 18 45 22 36 9 37 32 3 48 -40 19 -261 29 -276 12z"/>
</g>
</svg>
