<?xml version="1.0" standalone="no"?>
<!DOCTYPE svg PUBLIC "-//W3C//DTD SVG 20010904//EN"
 "http://www.w3.org/TR/2001/REC-SVG-20010904/DTD/svg10.dtd">
<svg version="1.0" xmlns="http://www.w3.org/2000/svg"
 width="643.000000pt" height="273.000000pt" viewBox="0 0 643.000000 273.000000"
 preserveAspectRatio="xMidYMid meet">

<g transform="translate(0.000000,273.000000) scale(0.100000,-0.100000)"
fill="#ffffff" stroke="none">
<path d="M5545 2723 c-172 -7 -493 -58 -745 -119 -250 -61 -594 -168 -979
-305 l-134 -48 -38 19 c-112 58 -245 16 -289 -91 -7 -16 -15 -29 -19 -29 -3 0
-21 23 -40 51 -40 59 -98 107 -151 125 -22 8 -60 29 -85 48 -48 37 -99 56
-151 56 -17 0 -75 9 -130 21 -139 29 -247 24 -329 -16 -83 -40 -163 -122 -209
-216 l-38 -76 -28 26 c-20 19 -29 39 -34 75 -8 63 -47 130 -94 161 -45 29
-115 55 -151 55 -38 0 -122 -43 -156 -80 -16 -18 -75 -63 -130 -100 -117 -78
-160 -123 -176 -182 l-11 -42 -14 32 c-7 18 -16 49 -20 70 -16 90 -95 244
-151 295 -76 68 -160 22 -290 -158 -56 -78 -83 -126 -83 -150 0 -28 -16 -16
-29 23 -25 72 -73 131 -129 159 -63 31 -105 27 -163 -12 -34 -25 -43 -26 -102
-20 -77 8 -108 -4 -161 -67 -64 -75 -83 -128 -111 -313 -14 -93 -28 -215 -31
-270 -7 -123 -24 -217 -74 -405 -44 -163 -60 -248 -62 -315 -1 -60 58 -181
122 -250 25 -27 58 -66 73 -86 35 -48 63 -54 161 -33 70 16 86 23 121 58 47
48 90 160 115 301 l16 90 90 -150 c52 -88 98 -154 111 -160 12 -5 27 -20 33
-33 9 -21 4 -32 -55 -105 -112 -142 -163 -272 -141 -361 9 -35 61 -92 110
-121 53 -31 185 -62 301 -70 346 -25 1236 158 1632 336 73 32 199 86 280 120
82 33 150 63 152 65 2 2 -4 15 -14 30 -22 34 -17 35 -440 -76 -519 -137 -789
-191 -1032 -208 -367 -25 -545 60 -504 242 9 42 52 127 77 155 1 2 20 -12 40
-32 l37 -34 -18 -46 c-21 -57 -11 -91 41 -137 69 -60 200 -79 419 -61 288 24
365 42 804 187 223 74 411 134 418 134 7 0 46 -16 86 -36 39 -20 99 -47 132
-59 33 -13 156 -67 273 -120 228 -103 294 -122 391 -110 44 6 62 14 88 40 28
28 33 40 33 83 0 34 6 57 20 75 11 14 20 28 20 31 0 3 -18 15 -40 26 -42 22
-45 26 -31 49 8 12 16 10 48 -12 82 -56 145 -69 227 -45 29 8 63 34 118 88 95
95 108 128 78 213 -11 31 -20 74 -20 94 l0 38 95 48 c52 26 97 47 100 47 3 0
5 -60 5 -134 0 -156 11 -191 82 -268 23 -26 59 -66 78 -89 104 -125 257 -96
349 64 25 45 61 167 62 212 0 27 1 28 12 12 7 -11 59 -76 117 -145 133 -160
170 -182 299 -182 111 1 225 21 285 52 47 24 217 168 308 261 54 55 175 222
207 285 42 82 54 154 42 250 -6 48 -16 126 -21 175 -6 48 -20 118 -30 155 -11
37 -27 92 -36 122 -9 30 -27 74 -41 98 -30 54 -144 180 -183 205 l-30 19 29
41 c50 73 73 129 78 188 11 120 -18 167 -145 227 -96 45 -219 57 -497 45z m-4
-228 c78 -16 134 -42 169 -80 20 -21 25 -38 28 -93 4 -89 -1 -95 -68 -81 -93
20 -211 -10 -272 -68 -21 -20 -28 -23 -32 -12 -25 87 -40 110 -80 134 -62 36
-176 48 -324 35 -64 -5 -176 -10 -248 -10 -121 0 -134 -2 -184 -27 -40 -20
-55 -23 -58 -14 -2 7 -17 28 -33 46 l-29 33 187 45 c294 71 406 91 618 111 67
6 256 -5 326 -19z m-4309 -73 c41 -41 96 -140 118 -211 20 -62 20 -70 5 -260
-8 -108 -17 -221 -21 -251 l-5 -55 37 65 c59 101 94 212 94 298 0 118 19 145
170 247 47 32 105 77 130 101 82 79 149 92 240 46 71 -36 111 -91 118 -164 4
-44 10 -58 37 -84 22 -20 36 -43 40 -70 4 -21 10 -50 15 -64 8 -23 8 -22 9 11
2 96 77 249 156 318 22 19 69 48 105 65 56 26 76 30 140 30 41 -1 118 -11 170
-23 52 -11 111 -21 132 -21 46 0 94 -19 127 -50 12 -13 46 -31 73 -42 69 -26
120 -70 175 -150 l47 -69 31 55 c17 30 40 65 51 77 42 48 124 62 191 34 49
-21 71 -42 89 -84 8 -19 32 -58 53 -86 66 -88 74 -110 68 -190 -4 -38 -13
-119 -21 -180 -17 -118 -22 -335 -7 -320 4 6 44 118 89 250 57 170 85 271 96
345 12 76 25 123 49 170 29 58 41 71 117 123 46 31 102 62 124 68 75 20 141
-19 184 -108 l15 -32 26 25 c46 47 67 51 281 60 301 12 412 10 464 -10 53 -20
68 -41 92 -127 9 -35 18 -65 19 -67 1 -1 24 20 51 47 73 73 165 96 283 70 42
-9 60 -8 102 6 38 13 73 16 134 13 115 -6 169 -34 262 -139 106 -118 133 -186
153 -379 24 -224 24 -241 0 -310 -36 -106 -203 -341 -293 -412 -23 -18 -79
-67 -124 -109 -46 -41 -104 -86 -129 -98 -58 -29 -176 -50 -284 -51 -111 0
-165 24 -239 106 -93 104 -130 209 -131 371 0 70 -10 106 -25 91 -2 -2 -9 -55
-15 -118 -27 -279 -84 -411 -202 -471 -71 -36 -160 -16 -225 51 -63 64 -68 87
-66 270 1 91 9 253 17 360 9 107 16 232 16 277 l0 81 -67 5 c-38 2 -77 7 -89
11 -20 7 -24 -3 -68 -171 -26 -98 -58 -210 -72 -250 -33 -94 -41 -200 -19
-273 28 -92 28 -114 7 -156 -29 -58 -120 -144 -181 -172 -87 -40 -187 -19
-276 59 -29 26 -38 29 -50 19 -24 -20 -18 -28 45 -60 63 -32 70 -43 45 -70 -8
-9 -19 -44 -23 -78 -11 -77 -36 -106 -103 -122 -59 -14 -154 -5 -221 21 -25
10 -122 52 -215 95 -92 42 -217 96 -277 120 -111 45 -231 109 -357 189 -61 40
-70 43 -76 28 -3 -10 -16 -42 -29 -70 -44 -100 -154 -139 -277 -97 -54 18
-131 82 -155 130 l-17 34 -40 -51 c-56 -70 -200 -199 -223 -199 -27 0 -45 24
-80 105 -41 98 -44 113 -51 266 l-6 136 -65 -25 -66 -25 -27 -104 c-43 -168
-103 -277 -181 -324 -73 -45 -218 0 -278 86 l-30 43 -47 -15 c-96 -31 -177
-64 -216 -87 l-39 -24 -84 142 c-46 77 -104 178 -129 224 -25 46 -46 82 -48
80 -1 -2 -10 -50 -20 -108 -19 -118 -72 -270 -107 -308 -49 -53 -202 -96 -254
-71 -35 17 -97 105 -123 174 -26 69 -18 129 55 415 46 179 57 238 64 350 14
200 53 450 81 507 12 26 44 69 70 96 l48 50 75 -7 c71 -6 76 -5 122 24 56 35
93 38 143 9 43 -24 74 -66 107 -146 30 -75 30 -119 -2 -195 -28 -67 -27 -95 5
-171 l18 -42 7 40 c3 22 11 83 16 135 23 214 33 245 119 363 125 172 186 206
253 139z m2804 -194 c-28 -37 -60 -115 -70 -170 -6 -34 -10 -38 -59 -52 -30
-9 -53 -11 -55 -6 -2 5 -26 40 -53 77 -27 37 -45 70 -41 74 4 4 63 27 132 52
69 24 132 47 140 50 30 11 31 7 6 -25z m-91 -310 c-2 -7 -11 -40 -20 -72 l-17
-60 -19 55 c-10 29 -20 58 -22 63 -1 5 9 13 23 17 39 11 60 10 55 -3z m608
-309 c-32 -22 -36 -20 -28 14 6 23 9 25 31 15 l24 -11 -27 -18z m47 -173 c0
-24 -3 -63 -6 -88 -6 -43 -8 -45 -86 -87 -43 -24 -81 -41 -84 -39 -2 3 6 44
19 92 23 87 23 87 74 116 28 16 54 34 58 40 14 22 25 8 25 -34z m-2844 -521
c21 -108 73 -218 114 -244 18 -11 40 -37 51 -60 31 -70 54 -66 153 24 46 43
99 97 117 121 18 24 36 44 41 44 4 0 19 -17 32 -39 36 -56 93 -99 161 -120 69
-22 70 -21 -85 -55 -259 -56 -471 -76 -587 -56 -62 10 -77 17 -108 48 -19 20
-40 51 -46 70 -10 30 -8 41 19 95 26 53 47 123 76 249 7 29 39 43 44 18 2 -8
10 -51 18 -95z m1040 -132 c41 -25 74 -50 74 -53 0 -6 -40 -19 -202 -65 -50
-14 -62 -9 -29 12 20 13 71 111 71 137 0 23 4 21 86 -31z"/>
<path d="M1114 2358 c-61 -64 -133 -162 -154 -211 -23 -52 -56 -299 -66 -492
-4 -77 -10 -151 -14 -165 -8 -25 -8 -25 -23 10 -8 19 -18 57 -22 84 -4 28 -27
95 -52 150 -55 121 -58 171 -19 257 l26 56 -24 73 c-27 78 -61 123 -107 139
-23 8 -33 5 -66 -19 -35 -27 -45 -29 -125 -30 l-87 0 -34 -42 c-52 -65 -67
-101 -77 -191 -6 -45 -17 -120 -25 -167 -8 -47 -15 -116 -15 -155 0 -98 -20
-209 -78 -435 -28 -107 -54 -223 -57 -257 -7 -60 -6 -64 39 -147 53 -97 53
-97 159 -72 56 13 117 55 117 80 0 6 13 45 29 86 21 52 36 121 50 229 12 85
21 158 21 163 0 4 10 8 23 8 18 0 28 -14 55 -73 24 -54 230 -416 247 -435 1
-1 24 8 51 22 27 13 89 37 137 52 71 23 92 34 103 56 10 19 74 308 74 335 0 2
4 3 9 3 14 0 33 -104 25 -136 -4 -15 -21 -50 -38 -78 -27 -43 -31 -57 -29
-112 3 -82 20 -114 85 -155 104 -67 174 -37 243 106 33 68 69 182 80 256 5 35
8 37 102 73 53 20 109 40 124 43 l27 5 -1 -163 c-1 -171 9 -224 62 -327 l17
-33 95 93 c52 51 107 115 122 141 42 72 60 172 53 292 -5 77 -3 105 7 119 13
18 14 17 20 -10 3 -16 22 -46 42 -66 32 -34 35 -41 35 -98 0 -56 -3 -64 -31
-90 -31 -27 -31 -29 -28 -107 5 -100 30 -142 105 -178 143 -68 218 -30 270
138 10 31 21 57 26 57 9 0 46 -22 174 -106 94 -61 197 -114 286 -148 35 -13
169 -72 298 -131 231 -106 237 -108 322 -113 83 -4 88 -3 112 21 20 20 26 36
26 71 0 24 2 50 5 58 3 8 -38 37 -120 83 -142 79 -309 191 -626 419 -226 163
-269 199 -269 227 0 23 23 40 138 100 133 70 221 136 288 218 78 94 91 156 55
270 -26 84 -118 206 -174 232 -23 10 -49 19 -58 19 -8 0 -26 12 -40 26 -32 34
-71 54 -107 54 -16 0 -87 12 -157 26 -80 16 -149 25 -180 22 -109 -9 -214 -87
-270 -201 -53 -108 -60 -166 -41 -350 24 -231 23 -252 -17 -290 l-32 -32 -3
28 c-2 15 -12 31 -22 37 -21 11 -21 13 -45 286 -19 206 -25 229 -70 266 -32
27 -35 34 -35 81 0 70 -27 112 -86 137 -76 33 -102 28 -175 -36 -35 -31 -98
-79 -139 -106 -41 -28 -90 -64 -107 -81 -31 -29 -33 -35 -33 -102 0 -91 -20
-167 -76 -285 -39 -83 -189 -320 -201 -320 -3 0 -2 12 2 27 12 49 33 243 51
476 20 250 20 243 -38 362 -30 62 -73 115 -93 115 -6 0 -29 -19 -51 -42z m93
-50 c16 -29 40 -78 52 -110 l23 -56 -27 -294 c-28 -324 -33 -360 -75 -533 -16
-66 -38 -169 -50 -229 -12 -60 -25 -119 -29 -129 -7 -18 -102 -58 -241 -103
-17 -5 -161 233 -236 391 l-45 95 -50 0 c-32 0 -49 -4 -49 -12 0 -7 -12 -92
-25 -188 -17 -115 -34 -193 -50 -230 -13 -30 -26 -64 -29 -75 -9 -33 -62 -58
-125 -59 l-56 -1 -38 73 -39 73 22 102 c12 56 33 143 46 192 48 176 74 319 74
405 1 47 7 121 15 165 8 44 22 127 30 184 14 95 18 109 55 157 40 53 41 54 84
48 66 -9 132 4 166 32 l30 26 33 -21 c27 -16 38 -34 56 -90 l23 -70 -27 -70
c-36 -90 -31 -136 24 -258 23 -51 48 -123 55 -161 7 -37 18 -76 24 -87 13 -26
70 -80 77 -74 2 3 9 70 15 150 23 306 43 492 61 556 13 46 163 253 184 253 7
0 26 -24 42 -52z m1521 33 c48 -11 123 -24 166 -30 71 -10 83 -15 122 -51 28
-25 53 -40 69 -40 41 0 60 -15 121 -96 69 -91 83 -128 84 -217 l0 -69 -61 -75
c-74 -89 -148 -145 -289 -218 -113 -57 -135 -75 -145 -117 -5 -21 0 -34 31
-68 21 -23 65 -61 98 -85 34 -23 178 -125 321 -227 252 -179 324 -226 487
-318 75 -43 77 -44 74 -79 -2 -20 -4 -44 -5 -53 -1 -16 -12 -18 -90 -18 -86 0
-91 1 -205 55 -132 63 -313 143 -466 207 -58 24 -136 65 -175 90 -262 170
-273 173 -292 96 -18 -73 -59 -155 -84 -168 -52 -28 -187 17 -215 73 -9 16
-19 57 -22 90 -5 56 -3 60 24 82 26 20 29 31 35 96 6 82 4 91 -41 139 -55 59
-52 112 10 169 57 53 62 84 44 275 -21 220 -17 282 26 374 40 87 102 148 182
180 67 26 88 26 196 3z m-767 -24 c54 -29 70 -58 62 -114 -5 -41 -4 -45 46
-93 47 -46 51 -53 51 -97 1 -26 9 -136 19 -243 17 -176 21 -196 41 -212 27
-22 21 -59 -21 -135 -30 -51 -30 -52 -19 -138 10 -82 0 -177 -26 -251 -16 -44
-187 -234 -199 -222 -4 3 -17 37 -30 74 -22 63 -25 85 -25 247 0 138 -3 177
-13 177 -52 0 -287 -88 -298 -112 -4 -7 -11 -43 -17 -80 -16 -110 -69 -235
-122 -290 -44 -46 -48 -47 -81 -38 -47 14 -112 63 -120 91 -4 13 -7 47 -8 74
0 41 6 60 34 105 40 63 45 109 19 201 -16 57 -16 58 10 115 15 32 44 81 65
109 138 180 221 374 221 517 0 91 2 94 111 164 38 25 103 74 145 110 42 35 84
64 93 64 10 0 38 -10 62 -23z"/>
<path d="M2637 2025 c-10 -23 -9 -203 1 -208 12 -7 140 38 169 59 64 48 57 94
-21 130 -73 33 -141 42 -149 19z"/>
<path d="M1782 1675 c-26 -55 -29 -80 -6 -71 9 3 24 6 35 6 16 0 19 7 19 55 0
69 -17 73 -48 10z"/>
<path d="M4210 2254 c-41 -26 -83 -53 -92 -61 -33 -29 -57 -99 -83 -237 -14
-78 -41 -181 -62 -235 -20 -53 -49 -139 -65 -191 -46 -154 -110 -273 -136
-256 -41 25 -49 302 -14 522 26 161 25 166 -42 253 -23 31 -49 71 -56 89 -20
51 -54 72 -115 72 -48 0 -56 -3 -81 -32 -37 -44 -101 -182 -115 -249 -18 -82
3 -624 31 -801 10 -65 30 -111 62 -148 39 -44 237 -170 268 -170 26 0 51 19
97 74 12 14 26 26 32 26 6 0 25 -16 43 -36 66 -74 156 -111 222 -93 69 19 186
138 186 189 0 15 -7 44 -16 65 -25 60 -15 239 18 335 42 120 109 377 128 485
16 96 17 98 24 58 15 -87 76 -121 193 -108 l63 7 0 -84 c0 -46 -7 -173 -15
-283 -8 -110 -18 -279 -21 -376 -7 -169 -6 -178 15 -223 28 -57 69 -87 128
-94 60 -6 104 17 143 76 62 94 73 145 104 477 12 124 19 159 40 200 23 45 26
64 30 189 5 146 8 156 54 156 32 0 95 34 110 60 25 42 26 121 3 201 -36 119
-33 116 -98 129 -41 9 -98 10 -198 4 -77 -4 -201 -8 -277 -8 -121 -1 -139 -3
-159 -21 -24 -22 -83 -110 -109 -164 l-17 -33 -6 85 c-9 125 -51 197 -117 197
-14 0 -59 -21 -100 -46z m149 -24 c25 -34 30 -52 36 -132 9 -124 -10 -290 -45
-403 -16 -49 -42 -144 -59 -210 -16 -66 -39 -142 -51 -170 -20 -46 -21 -60
-15 -165 4 -65 13 -127 21 -142 20 -39 19 -42 -33 -100 -55 -62 -107 -97 -146
-98 -41 0 -117 42 -159 89 -41 46 -85 55 -115 22 -10 -10 -31 -32 -46 -50 -34
-37 -47 -38 -84 -8 -15 13 -55 40 -88 60 -61 36 -124 95 -143 132 -28 56 -51
374 -52 697 0 174 1 179 30 253 29 72 74 152 95 167 11 9 78 4 95 -7 6 -3 21
-28 35 -54 13 -26 39 -68 58 -93 57 -74 57 -73 36 -188 -24 -136 -34 -373 -21
-469 16 -111 59 -156 106 -112 34 32 94 156 125 261 16 52 47 147 69 210 22
63 50 169 62 235 32 183 41 198 175 281 27 18 58 32 67 33 10 1 31 -17 47 -39z
m801 -21 c35 -5 66 -11 67 -13 1 -1 14 -41 28 -89 41 -143 17 -209 -83 -222
-86 -12 -79 2 -84 -173 -3 -148 -5 -160 -31 -207 -16 -30 -27 -66 -27 -90 0
-22 -11 -131 -24 -243 -22 -191 -25 -207 -61 -278 -57 -116 -121 -144 -190
-83 -67 59 -68 64 -55 313 6 121 15 271 21 331 5 61 9 174 9 252 l0 142 -97
-6 c-114 -7 -138 4 -153 72 -18 75 -12 107 29 173 72 118 61 112 218 113 76 1
167 5 203 9 100 11 159 11 230 -1z"/>
<path d="M5805 2159 c-49 -16 -68 -17 -102 -9 -73 17 -153 12 -209 -14 -46
-21 -54 -31 -91 -102 -23 -44 -53 -122 -68 -174 -16 -59 -42 -121 -68 -163
-135 -218 -149 -255 -128 -320 7 -19 22 -39 35 -45 23 -10 24 -15 28 -149 4
-128 6 -142 33 -196 34 -70 123 -169 165 -187 47 -20 270 -8 336 17 81 32 334
258 410 367 32 47 73 105 91 130 60 88 68 130 54 306 -20 259 -40 315 -148
433 -75 82 -105 101 -188 116 -75 14 -78 14 -150 -10z m170 -29 c56 -11 65
-17 132 -89 40 -42 81 -94 92 -116 25 -51 47 -167 61 -320 10 -111 10 -125 -9
-185 -12 -38 -35 -82 -54 -105 -19 -22 -55 -72 -80 -112 -35 -53 -83 -103
-192 -200 -80 -70 -161 -136 -180 -146 -23 -12 -74 -22 -157 -29 -160 -14
-186 -7 -251 69 -82 97 -95 136 -103 302 l-7 144 -28 16 c-26 14 -29 22 -29
65 0 44 9 64 89 196 73 119 93 160 107 221 9 41 36 114 61 162 53 108 77 122
191 119 39 -2 93 -3 120 -4 26 -1 72 5 102 14 30 9 60 15 65 14 6 -2 37 -9 70
-16z"/>
<path d="M5700 1752 c-27 -13 -45 -35 -77 -97 -58 -111 -77 -194 -78 -337 0
-103 2 -120 21 -145 27 -36 51 -39 107 -13 55 26 160 143 220 245 l41 70 -2
100 c-4 183 -11 195 -121 195 -52 0 -87 -5 -111 -18z"/>
<path d="M5213 1799 c-33 -9 -33 -10 -33 -72 l0 -62 21 30 c22 33 59 101 59
110 0 6 -7 6 -47 -6z"/>
<path d="M2232 1735 c0 -16 2 -22 5 -12 2 9 2 23 0 30 -3 6 -5 -1 -5 -18z"/>
<path d="M3214 1616 c-72 -62 -202 -144 -274 -174 -22 -10 -40 -20 -40 -23 0
-11 140 -116 404 -302 23 -16 28 -17 24 -5 -10 26 -29 234 -36 404 l-7 161
-71 -61z m56 -231 c0 -53 -4 -75 -12 -75 -38 0 -178 24 -178 31 0 4 24 21 53
37 28 17 68 42 87 56 19 14 38 25 43 26 4 0 7 -34 7 -75z m20 -195 c0 -25 -8
-25 -40 0 l-25 20 33 0 c25 0 32 -4 32 -20z"/>
<path d="M5448 483 c-82 -112 -198 -280 -198 -287 0 -3 22 -6 50 -6 l49 0 58
86 c32 47 63 93 69 101 10 14 18 11 69 -25 l58 -42 38 31 c21 17 41 34 44 39
8 13 -49 56 -100 75 -25 10 -45 21 -45 24 0 4 14 26 31 49 l31 42 -45 0 c-45
0 -45 0 -109 -87z"/>
<path d="M4598 515 l-32 -45 -97 0 c-97 0 -98 0 -119 -30 l-21 -30 85 0 c54 0
87 -4 92 -12 5 -7 -16 -33 -52 -68 -59 -55 -111 -80 -168 -80 -26 0 -26 0 -10
-31 14 -29 18 -30 52 -24 66 12 154 67 229 142 l72 73 84 0 c81 0 84 1 105 30
l23 30 -76 0 c-41 0 -75 3 -75 8 0 4 9 21 20 37 11 17 20 33 20 38 0 4 -23 7
-50 7 -48 0 -52 -2 -82 -45z"/>
<path d="M5061 492 c-38 -62 -139 -201 -179 -244 l-24 -26 30 -16 c28 -14 35
-14 84 3 70 24 162 71 249 127 l70 44 -17 30 c-10 16 -22 26 -28 22 -6 -3 -31
-20 -56 -38 -55 -38 -128 -76 -140 -72 -5 2 17 44 50 95 91 142 88 133 38 133
-42 -1 -44 -3 -77 -58z"/>
<path d="M4926 479 c-54 -82 -159 -194 -214 -226 l-45 -27 23 -18 c21 -17 23
-17 53 0 73 41 307 290 307 326 0 3 -19 6 -42 6 -41 -1 -45 -3 -82 -61z"/>
<path d="M4043 428 c-6 -7 -16 -23 -22 -35 l-12 -23 108 0 108 0 23 35 22 35
-109 0 c-75 0 -112 -4 -118 -12z"/>
<path d="M5792 405 l-23 -36 116 3 116 3 20 33 21 32 -114 0 -113 0 -23 -35z"/>
</g>
</svg>
