<?xml version="1.0" standalone="no"?>
<!DOCTYPE svg PUBLIC "-//W3C//DTD SVG 20010904//EN"
 "http://www.w3.org/TR/2001/REC-SVG-20010904/DTD/svg10.dtd">
<svg version="1.0" xmlns="http://www.w3.org/2000/svg"
 width="290.000000pt" height="252.000000pt" viewBox="0 0 290.000000 252.000000"
 preserveAspectRatio="xMidYMid meet">

<g transform="translate(0.000000,252.000000) scale(0.100000,-0.100000)"
fill="#ffffff" stroke="none">
<path d="M357 2446 c-75 -28 -123 -94 -113 -155 l6 -36 -39 3 c-70 7 -126 -39
-151 -125 -17 -55 -2 -109 43 -160 56 -64 142 -81 216 -43 l39 19 147 -132
148 -132 -165 -5 c-181 -5 -189 -8 -208 -66 -9 -27 -9 -42 0 -65 22 -51 51
-59 228 -59 l159 0 26 -100 c48 -183 122 -313 224 -391 l52 -41 -186 -160
-185 -160 -48 21 c-81 35 -153 21 -211 -39 -103 -108 -50 -267 95 -285 l55 -7
-2 -58 c-2 -69 18 -104 77 -134 46 -23 132 -24 174 -2 59 30 102 105 102 176
0 14 -9 41 -19 61 l-20 36 68 56 c38 31 71 53 75 50 3 -4 6 -16 6 -27 0 -67
105 -214 197 -278 103 -71 264 -102 406 -80 182 29 333 160 373 325 l17 66 31
-26 c101 -84 98 -80 81 -112 -40 -79 -2 -191 78 -230 105 -51 201 -28 245 59
12 24 22 58 22 76 0 31 1 32 55 36 62 5 98 31 121 85 67 157 -115 324 -260
239 l-41 -24 -175 164 c-96 90 -176 169 -177 176 -1 7 20 30 47 51 90 69 191
248 256 452 l9 30 165 3 c91 1 177 8 192 13 38 15 54 66 35 112 -8 19 -19 37
-23 40 -5 3 -88 8 -184 12 -96 4 -176 8 -177 9 -6 5 279 251 289 249 7 -1 31
-9 53 -17 54 -20 102 -19 150 3 48 22 69 44 90 94 50 121 -43 259 -154 227
l-34 -9 6 42 c15 106 -87 201 -194 181 -59 -11 -125 -53 -148 -94 -27 -49 -28
-123 -2 -167 l20 -32 -77 -67 c-42 -37 -86 -76 -97 -86 -21 -17 -22 -17 -58
32 -81 108 -264 226 -424 272 -109 32 -339 32 -457 -1 -174 -47 -302 -131
-392 -257 l-46 -65 -97 88 c-53 48 -98 88 -100 90 -2 1 4 20 13 43 35 87 11
165 -65 212 -55 34 -112 42 -162 24z m123 -48 c82 -43 101 -99 61 -190 l-20
-48 114 -102 c63 -57 115 -108 115 -114 0 -6 -11 -37 -25 -68 -13 -31 -30 -76
-36 -101 -6 -25 -15 -45 -20 -45 -4 0 -73 59 -153 130 -79 72 -149 130 -155
130 -6 0 -28 -9 -48 -20 -77 -41 -165 -15 -203 61 -25 48 -25 72 0 125 31 64
59 78 144 71 46 -3 63 -2 48 4 -67 26 -34 136 53 175 43 19 75 17 125 -8z
m2047 11 c68 -25 108 -96 93 -162 l-7 -34 48 5 c35 3 56 0 74 -12 38 -25 65
-75 65 -121 0 -119 -120 -182 -229 -120 -23 14 -45 25 -47 25 -2 0 -68 -58
-146 -130 -79 -71 -145 -130 -148 -130 -5 0 -67 177 -76 215 -3 15 10 31 49
63 28 23 79 66 111 96 l60 53 -27 35 c-56 73 -25 176 63 210 53 20 79 22 117
7z m-901 -129 c159 -38 289 -114 401 -234 64 -70 112 -140 101 -151 -2 -3
-103 0 -224 5 -289 13 -582 13 -881 -1 -134 -6 -247 -9 -250 -6 -12 12 66 134
129 202 67 72 142 120 248 159 133 49 336 60 476 26z m937 -649 c30 -12 42
-43 28 -69 -9 -17 -27 -20 -143 -25 -73 -4 -576 -7 -1117 -7 -914 -1 -985 0
-1002 16 -23 21 -24 42 -3 72 l15 22 1099 0 c664 0 1109 -4 1123 -9z m-373
-140 c0 -5 -12 -44 -26 -87 -91 -276 -253 -441 -489 -501 -107 -27 -372 -24
-479 5 -256 70 -388 206 -460 472 -14 52 -26 98 -26 102 0 10 167 13 868 16
350 1 612 -2 612 -7z m-1205 -633 c-27 -86 -45 -182 -45 -245 0 -40 -3 -44
-87 -114 -49 -39 -90 -76 -92 -81 -2 -6 7 -28 19 -50 44 -78 9 -171 -75 -203
-37 -15 -51 -16 -94 -5 -73 17 -101 53 -101 129 l0 58 -51 6 c-81 10 -124 48
-136 120 -12 78 66 167 147 167 18 0 54 -12 80 -26 l48 -26 204 175 c112 96
204 174 205 173 1 -1 -9 -36 -22 -78z m1068 -80 c95 -89 184 -172 198 -185
l26 -24 38 31 c70 56 169 33 212 -50 39 -73 23 -165 -34 -193 -36 -18 -103
-29 -103 -16 0 5 -4 9 -10 9 -5 0 -10 -19 -10 -43 0 -55 -28 -106 -71 -129
-43 -23 -83 -23 -135 1 -83 38 -111 126 -65 203 l22 36 -90 78 c-90 77 -91 79
-91 123 0 86 -24 197 -65 304 -4 9 -4 17 0 17 3 0 84 -73 178 -162z m-860 102
c12 0 17 -8 17 -27 0 -55 -13 -103 -27 -103 -13 0 -173 77 -173 83 0 2 7 24
16 49 l15 46 67 -24 c37 -13 75 -24 85 -24z m669 -15 c18 -47 19 -50 2 -62
-27 -20 -174 -74 -184 -68 -8 5 -25 103 -21 122 2 10 151 62 170 60 7 -1 22
-24 33 -52z m-484 -15 l52 0 0 -70 0 -70 -52 1 c-29 0 -75 6 -103 13 -49 11
-50 12 -48 46 2 19 5 49 8 66 5 31 6 31 48 23 23 -4 66 -8 95 -9z m255 -12 c3
-13 9 -44 12 -69 l7 -47 -39 -6 c-21 -3 -64 -8 -96 -12 l-58 -6 3 73 3 74 55
6 c105 11 107 11 113 -13z m-529 -83 l88 -40 -6 -35 c-3 -19 -6 -44 -6 -55 -1
-46 -14 -48 -81 -15 -91 46 -119 68 -119 93 0 33 20 99 29 95 4 -2 47 -21 95
-43z m790 3 c3 -13 6 -39 6 -59 0 -34 -3 -38 -82 -82 -46 -26 -91 -47 -100
-47 -13 0 -18 14 -25 58 -4 31 -8 61 -8 65 0 6 176 84 196 86 4 1 9 -9 13 -21z
m-551 -69 l87 -12 0 -80 0 -80 -52 7 c-29 4 -81 15 -115 24 -70 18 -68 14 -56
110 5 48 8 53 27 48 12 -3 60 -11 109 -17z m321 -31 c4 -24 9 -57 12 -74 l6
-32 -71 -16 c-38 -9 -88 -16 -110 -16 l-41 0 0 80 0 80 53 1 c28 0 70 4 92 8
22 5 43 9 46 10 4 0 9 -18 13 -41z m-459 -117 c222 -74 404 -60 607 47 49 25
91 42 95 39 13 -13 -16 -179 -41 -233 -35 -76 -111 -148 -202 -191 -65 -31
-88 -37 -167 -41 -171 -8 -297 35 -397 138 -76 78 -111 152 -119 258 -4 45 -5
85 -3 87 2 2 34 -14 70 -35 37 -21 108 -52 157 -69z"/>
<path d="M971 2007 c-23 -48 -25 -57 -12 -57 8 0 61 84 61 96 0 2 -6 4 -14 4
-8 0 -24 -19 -35 -43z"/>
<path d="M1862 2033 c16 -36 52 -82 59 -77 10 6 -4 38 -29 67 -15 17 -37 24
-30 10z"/>
<path d="M1046 1995 c-17 -25 -21 -55 -8 -55 8 0 42 57 42 71 0 17 -18 9 -34
-16z"/>
<path d="M1790 1995 c0 -12 24 -55 32 -55 12 0 10 34 -4 48 -12 12 -28 16 -28
7z"/>
<path d="M1111 1968 c-10 -27 -7 -33 14 -25 17 7 21 47 5 47 -6 0 -14 -10 -19
-22z"/>
<path d="M1075 1436 c-71 -35 -105 -88 -105 -164 0 -71 28 -124 83 -157 125
-73 277 13 277 157 0 55 -25 104 -73 142 -30 24 -49 30 -95 33 -36 2 -68 -2
-87 -11z"/>
<path d="M1665 1434 c-68 -35 -98 -83 -98 -159 -1 -102 65 -175 166 -182 163
-13 255 172 149 299 -14 17 -41 37 -59 44 -43 19 -121 18 -158 -2z"/>
<path d="M1398 1069 c-23 -13 -23 -51 0 -72 39 -36 132 -9 132 37 0 37 -89 60
-132 35z"/>
</g>
</svg>
