<?xml version="1.0" standalone="no"?>
<!DOCTYPE svg PUBLIC "-//W3C//DTD SVG 20010904//EN"
 "http://www.w3.org/TR/2001/REC-SVG-20010904/DTD/svg10.dtd">
<svg version="1.0" xmlns="http://www.w3.org/2000/svg"
 width="531.000000pt" height="722.000000pt" viewBox="0 0 531.000000 722.000000"
 preserveAspectRatio="xMidYMid meet">

<g transform="translate(0.000000,722.000000) scale(0.100000,-0.100000)"
fill="#ffffff" stroke="none">
<path d="M4590 7149 c-117 -84 -180 -138 -285 -246 l-91 -92 -304 -6 c-168 -3
-864 -13 -1548 -21 l-1242 -15 -83 76 c-104 96 -257 200 -400 270 -131 65
-133 64 -123 -56 7 -82 35 -188 67 -251 11 -21 19 -40 19 -43 0 -3 -133 -5
-295 -5 l-295 0 0 -2669 0 -2668 507 -263 c280 -145 587 -304 683 -354 96 -49
191 -99 212 -111 l36 -21 -224 -199 c-273 -242 -262 -231 -242 -251 13 -14 37
-7 224 66 115 45 287 113 383 152 l174 71 81 -41 c45 -23 259 -134 476 -247
217 -113 403 -208 413 -211 16 -5 104 35 252 116 28 15 186 98 352 184 l302
158 173 -62 c305 -109 720 -251 724 -247 2 2 -54 42 -124 90 -70 47 -165 117
-212 154 -106 85 -242 213 -238 225 4 11 60 41 985 524 l363 189 0 2739 0
2739 -321 -5 -321 -6 7 22 c11 31 18 376 8 376 -4 0 -46 -28 -93 -61z m50
-142 c0 -132 -19 -218 -79 -356 -86 -197 -205 -365 -396 -557 -121 -121 -320
-294 -429 -372 l-46 -33 0 263 0 263 72 55 c157 119 302 265 429 432 88 115
211 241 328 334 58 46 108 84 113 84 4 0 8 -51 8 -113z m608 -2939 l-3 -2683
-170 -89 c-1212 -632 -1159 -606 -1176 -591 -21 20 -126 19 -293 0 -71 -9
-131 -14 -133 -11 -3 3 171 91 487 245 41 20 102 54 135 75 33 22 269 148 525
282 l465 243 3 1229 2 1230 -31 4 c-17 3 -134 3 -260 0 -137 -3 -229 -1 -229
5 0 5 20 25 44 46 25 20 58 60 73 87 l28 50 183 0 182 0 0 636 c0 451 3 649
12 682 9 35 9 47 0 50 -9 3 -12 124 -12 473 l0 469 -270 0 -270 0 30 60 c26
52 50 108 73 173 6 16 30 17 307 17 l300 0 -2 -2682z m-1107 2643 c-12 -16
-56 -69 -99 -118 l-78 -88 -587 -3 -587 -2 0 -609 c0 -544 -11 -912 -34 -1159
-3 -32 -1 -41 7 -33 23 23 27 8 27 -98 l0 -108 -57 -38 c-32 -21 -79 -56 -105
-77 l-48 -40 0 80 0 80 52 57 c45 49 50 59 40 76 -7 11 -12 59 -12 121 1 118
17 388 26 433 6 29 4 28 -50 -25 l-57 -55 1 65 c1 36 1 350 1 698 l-1 632
-622 1 -623 0 -81 102 -82 102 977 12 c537 7 1086 14 1221 15 135 2 368 4 518
6 l273 2 -20 -29z m-3456 -102 c28 -51 51 -95 53 -100 2 -5 -99 -10 -225 -11
l-228 -3 -3 -60 c-2 -34 -8 -64 -16 -70 -10 -8 -10 -21 0 -70 17 -81 20 -770
3 -759 -8 5 -10 -3 -4 -27 4 -19 9 -172 12 -340 l4 -306 -23 1 c-22 1 -23 -2
-22 -59 1 -33 11 -88 23 -122 19 -56 21 -84 21 -278 l0 -215 152 0 151 0 56
-53 c31 -28 79 -71 106 -94 l50 -42 -250 -1 c-137 0 -260 -3 -271 -6 -20 -5
-21 -9 -11 -42 8 -26 11 -405 11 -1242 l1 -1205 353 -175 c213 -106 358 -184
364 -195 49 -93 225 -183 424 -218 45 -8 107 -28 146 -48 l67 -33 -57 -52
c-31 -29 -63 -53 -71 -54 -7 0 -133 62 -280 139 -146 76 -358 186 -471 244
-113 58 -308 160 -435 226 l-230 119 -3 2616 -2 2615 92 4 c51 1 176 4 278 5
l185 2 50 -91z m146 -246 c130 -208 344 -428 555 -571 34 -23 64 -42 68 -42 3
0 6 131 6 291 l0 290 -30 44 c-16 24 -30 46 -30 49 0 3 250 6 555 6 l555 0 0
-557 0 -556 -22 19 c-25 21 -107 97 -248 230 -52 49 -133 125 -180 169 -168
159 -296 281 -370 352 -85 81 -121 113 -128 113 -5 0 2 -171 19 -445 l11 -169
101 -116 c144 -162 360 -377 440 -438 83 -62 131 -80 155 -60 9 8 60 51 113
96 54 45 100 82 103 82 3 0 6 -24 6 -52 l0 -53 -123 -125 c-182 -186 -282
-293 -315 -338 -28 -40 -35 -63 -73 -264 l-10 -58 -56 0 -56 0 6 104 6 105
-167 139 c-199 166 -338 271 -404 307 l-48 26 0 -63 c0 -35 5 -115 10 -178 5
-63 10 -155 11 -203 l2 -88 93 -71 c52 -39 96 -73 98 -77 2 -3 -36 -5 -85 -4
-72 1 -94 5 -118 22 -37 27 -54 27 -46 1 6 -19 2 -20 -63 -20 l-70 0 -6 43
c-6 38 -14 48 -86 105 -88 69 -174 147 -322 288 -111 106 -128 117 -224 138
-38 9 -79 18 -91 21 -23 5 -23 6 -22 213 0 198 1 206 17 182 9 -14 38 -53 65
-88 26 -35 44 -68 41 -74 -4 -6 -2 -8 3 -5 6 4 30 -18 53 -49 66 -88 216 -234
320 -311 119 -88 350 -246 350 -239 0 3 -7 52 -15 108 -8 57 -21 179 -29 271
-14 155 -17 170 -38 186 -13 10 -131 109 -263 220 -162 136 -251 204 -275 210
-19 5 -73 16 -120 26 -47 9 -91 19 -97 21 -10 3 -13 63 -13 259 0 140 2 255 4
255 2 0 21 -30 41 -67 181 -330 494 -654 761 -787 80 -41 89 -43 80 -20 -16
43 -36 218 -46 404 -13 254 -13 250 -19 244 -3 -3 -130 120 -282 272 -313 313
-281 292 -456 293 -82 1 -83 1 -83 26 l0 25 219 0 219 0 43 -67z m2997 24
c-26 -23 -78 -64 -117 -92 l-70 -50 -1 -322 c0 -178 4 -323 8 -323 4 0 58 38
119 83 296 223 546 466 681 665 l56 82 258 0 c191 0 257 -3 256 -12 -2 -6 -61
-40 -131 -75 -157 -78 -307 -178 -480 -321 -133 -110 -349 -271 -443 -330
l-51 -32 -6 -163 c-9 -230 -35 -368 -92 -484 -12 -26 -21 -50 -20 -51 7 -8
454 307 661 466 215 165 214 164 351 437 65 132 137 286 159 342 21 57 41 103
44 103 3 0 4 -170 3 -377 l-3 -378 -62 -18 c-205 -57 -340 -114 -478 -201
-107 -67 -264 -186 -357 -271 l-63 -57 0 -86 c0 -182 -50 -344 -152 -494 -21
-32 -34 -58 -28 -58 27 0 144 46 233 92 316 162 703 509 868 778 l34 55 2 -55
c2 -30 4 -126 5 -212 l3 -157 -40 -7 c-103 -17 -235 -96 -525 -313 -107 -80
-227 -165 -267 -189 -56 -34 -73 -50 -78 -73 l-7 -29 -208 0 -209 0 63 83 c35
46 75 108 89 138 21 43 117 380 117 412 0 12 -111 -48 -201 -109 -119 -81
-181 -134 -377 -321 -222 -213 -211 -205 -268 -201 l-46 3 135 112 c245 203
451 423 514 548 11 22 32 99 47 170 15 72 45 215 67 318 22 104 39 191 36 193
-2 3 -215 -209 -473 -471 l-469 -475 -11 -84 c-7 -46 -15 -132 -19 -192 -4
-60 -9 -112 -12 -116 -18 -31 -23 18 -23 250 l0 258 171 169 c270 267 483 488
528 548 l41 56 0 291 c0 161 -4 290 -8 288 -5 -1 -152 -158 -328 -348 -175
-189 -338 -365 -361 -390 l-43 -45 0 543 0 542 513 0 512 -1 -47 -42z m1189
-59 c-3 -8 -6 -5 -6 6 -1 11 2 17 5 13 3 -3 4 -12 1 -19z m-103 -119 c-21 -52
-91 -201 -157 -332 l-119 -237 -93 -78 c-94 -78 -369 -282 -547 -405 l-97 -68
10 33 c20 71 39 220 45 363 l7 150 51 32 c90 55 272 190 423 314 80 66 189
149 242 184 115 76 265 158 269 146 2 -5 -14 -51 -34 -102z m-1378 -644 c-3
-11 -33 -51 -67 -90 -73 -84 -652 -666 -657 -661 -1 2 2 102 9 222 l12 218
257 276 c141 151 299 322 351 378 l94 104 3 -214 c1 -117 0 -222 -2 -233z
m1484 -128 c-89 -237 -423 -600 -758 -824 -79 -52 -258 -152 -275 -153 -4 0 6
27 23 60 50 99 80 221 88 355 l7 119 85 73 c213 184 436 317 640 382 125 40
204 59 208 51 1 -4 -7 -32 -18 -63z m-1290 -217 c-28 -136 -58 -253 -71 -278
-50 -98 -178 -243 -351 -399 -128 -114 -377 -318 -383 -312 -1 2 5 93 15 203
l18 198 214 217 c117 119 301 305 407 413 107 109 196 196 197 195 1 -1 -19
-108 -46 -237z m-1104 -167 c-3 -16 -8 -123 -12 -240 l-6 -211 -141 -164
c-185 -216 -450 -529 -459 -542 -18 -27 -18 15 2 155 11 84 34 224 50 311 24
133 33 165 56 196 53 70 492 522 507 522 5 0 6 -12 3 -27z m2374 -253 c0 -36
-58 -173 -113 -265 -75 -127 -239 -372 -284 -424 -37 -42 -190 -161 -323 -251
-87 -59 -304 -190 -307 -186 -2 2 10 41 28 87 17 46 59 183 93 303 l63 219
104 70 c57 38 174 123 259 187 220 166 311 224 415 261 63 23 65 23 65 -1z
m-1146 -92 c-59 -220 -85 -266 -262 -473 -106 -123 -109 -125 -312 -299 -377
-323 -364 -312 -357 -280 3 16 21 109 39 207 l33 179 110 101 c60 56 195 183
300 282 104 99 213 199 240 221 61 50 212 154 225 154 5 0 -3 -42 -16 -92z
m1159 -239 l-3 -211 -117 1 c-65 1 -118 3 -119 4 -1 1 38 62 87 136 48 74 103
167 121 208 18 40 33 73 33 73 0 0 -1 -95 -2 -211z m-4565 -126 c34 -46 62
-84 62 -86 0 -1 -36 -1 -80 1 l-80 4 1 106 c0 104 1 106 17 82 9 -13 45 -61
80 -107z m2058 -59 c-5 -19 -14 -23 -65 -26 -69 -4 -70 -4 11 87 l53 61 3 -50
c2 -27 1 -60 -2 -72z m242 9 c-11 -162 -31 -257 -64 -300 -131 -172 -697 -828
-724 -841 -4 -1 -5 10 -4 25 2 16 11 107 19 203 19 205 5 175 215 455 136 180
263 325 370 422 68 62 181 153 190 153 3 0 2 -53 -2 -117z m-1494 -135 c3 -18
10 -60 16 -92 5 -33 10 -61 10 -63 0 -2 -26 -3 -57 -1 l-58 3 -17 62 c-9 35
-19 76 -23 93 l-7 30 66 0 65 0 5 -32z m453 -60 l124 -93 -73 -3 -72 -3 -129
88 c-70 48 -131 91 -133 95 -3 4 32 8 77 8 l82 0 124 -92z m270 55 c-4 -21 -9
-64 -13 -95 l-7 -58 -38 0 -39 0 0 95 0 95 51 0 52 0 -6 -37z m385 -30 c-33
-38 -71 -81 -84 -96 -20 -25 -29 -28 -70 -25 l-47 3 77 93 76 92 54 0 53 0
-59 -67z m506 37 c-3 -16 -2 -30 1 -30 3 0 24 14 45 30 35 26 48 30 105 30
l66 -1 -67 -62 c-47 -43 -69 -72 -73 -94 l-7 -33 -74 0 -74 0 0 -60 c0 -43 -4
-60 -13 -60 -7 0 -55 -43 -106 -95 -52 -52 -95 -95 -97 -95 -2 0 -4 21 -4 46
0 41 6 52 69 128 105 126 118 148 131 229 17 101 14 97 61 97 40 0 41 -1 37
-30z m982 26 c0 -3 -53 -33 -117 -67 -65 -35 -140 -75 -166 -91 -31 -18 -62
-28 -87 -28 -22 0 -40 1 -40 3 0 1 40 43 88 94 l87 92 118 0 c64 1 117 -1 117
-3z m230 -3 c0 -5 -7 -30 -15 -58 -9 -27 -20 -67 -26 -87 -9 -37 -11 -38 -55
-38 -43 0 -46 2 -41 23 3 12 11 55 18 95 l12 72 54 0 c29 0 53 -3 53 -7z
m-166 -60 c-21 -127 -64 -263 -115 -364 -70 -140 -206 -297 -339 -391 -127
-89 -421 -268 -442 -268 -3 0 12 55 32 123 21 67 53 183 71 257 l34 135 100
101 c122 122 199 186 296 247 83 51 350 196 362 197 4 0 5 -17 1 -37z m1091
-180 c-10 -42 -89 -195 -136 -266 -113 -167 -256 -324 -362 -396 -125 -85
-559 -264 -542 -224 25 60 79 228 101 316 l26 105 121 84 c180 125 217 148
435 258 182 92 316 149 351 150 9 0 11 -8 6 -27z m-248 -9 c-1 -1 -69 -37
-152 -79 -182 -94 -271 -148 -435 -262 -99 -70 -126 -94 -132 -118 -53 -220
-93 -345 -139 -437 -16 -32 -29 -60 -29 -64 0 -27 390 114 550 199 117 62 178
108 271 203 118 123 233 280 304 417 l20 38 3 -1123 c1 -617 -1 -1125 -5
-1128 -5 -4 -84 -47 -178 -95 -231 -119 -431 -224 -544 -283 l-93 -50 -36 24
c-52 36 -105 47 -232 48 -119 1 -156 -5 -383 -65 -59 -16 -109 -29 -111 -29
-3 0 -15 -17 -27 -37 -36 -60 -183 -253 -233 -307 -25 -27 -46 -52 -46 -56 0
-4 9 -15 20 -25 17 -15 32 -17 97 -12 l78 6 -57 -28 c-32 -16 -64 -33 -70 -38
-7 -6 -88 -49 -180 -97 l-168 -87 0 136 0 135 58 0 57 1 204 199 c113 110 203
202 200 204 -9 10 -360 -74 -458 -108 -57 -21 -61 -20 -61 7 0 20 10 27 68 47
134 46 299 112 380 153 109 53 165 115 238 262 30 60 54 115 54 121 0 6 -9 14
-20 17 -55 14 -243 -57 -561 -212 -81 -39 -149 -71 -153 -71 -3 0 -6 20 -6 44
l0 44 148 50 c81 27 201 67 267 88 l120 39 135 135 c92 91 149 158 177 205 43
71 91 200 80 212 -6 5 -62 -14 -272 -94 -189 -72 -289 -117 -368 -166 -79 -48
-268 -147 -281 -147 -3 0 -6 22 -6 49 l0 49 98 42 c364 159 582 263 639 306
56 43 160 216 268 448 l46 99 -53 -6 c-154 -19 -320 -85 -471 -190 -220 -152
-265 -183 -317 -218 l-55 -37 -75 -182 -75 -181 -3 77 c-2 60 2 88 17 123 10
25 23 64 27 85 7 38 6 39 -20 32 l-26 -6 0 164 c0 160 1 167 34 268 33 98 59
208 49 208 -3 0 -23 -14 -44 -31 l-39 -31 0 159 0 159 65 154 c62 145 64 154
48 172 -16 18 -18 17 -65 -29 l-48 -47 0 87 c0 83 1 87 19 76 16 -11 30 -2
107 64 373 318 372 317 405 317 l31 0 -48 -42 c-89 -78 -176 -162 -215 -209
-34 -41 -44 -65 -75 -185 -46 -180 -101 -359 -126 -407 -22 -43 -18 -67 10
-67 37 0 355 183 512 295 101 72 229 196 292 286 53 74 118 201 143 277 16 51
17 52 56 52 21 0 39 -4 39 -8 0 -19 -70 -211 -90 -249 -37 -67 -8 -93 63 -57
73 37 299 177 387 240 62 44 109 70 135 75 33 5 268 8 262 3z m-3779 -57 c90
-56 274 -157 285 -157 3 0 -3 21 -14 48 -19 44 -59 152 -59 160 0 2 23 2 51 0
l52 -3 22 -75 c44 -154 73 -182 370 -357 l140 -83 3 247 c2 225 1 247 -15 259
-16 12 -8 13 57 14 l75 0 1 -75 c1 -42 5 -79 9 -83 4 -4 18 7 32 23 118 142
110 135 163 135 l48 0 -97 -130 c-167 -224 -157 -198 -182 -468 -21 -238 -20
-262 16 -262 26 0 279 276 485 527 41 51 77 92 81 92 3 1 4 -17 3 -39 -1 -36
-12 -51 -126 -172 -214 -230 -386 -429 -448 -521 l-30 -45 0 -237 c0 -221 1
-236 17 -224 9 8 138 156 286 329 344 402 307 366 307 305 0 -48 -3 -53 -63
-115 -184 -189 -470 -503 -520 -571 l-27 -36 0 -198 0 -198 27 24 26 24 -24
-35 c-18 -25 -32 -68 -47 -150 -12 -63 -22 -123 -22 -133 0 -18 1 -18 23 0
180 140 565 422 625 457 9 5 12 -5 12 -41 l-1 -48 -136 -75 c-199 -109 -426
-262 -503 -339 l-65 -66 -38 -136 c-20 -75 -37 -142 -37 -148 0 -13 50 12 555
284 110 59 206 112 213 117 9 8 12 3 12 -19 0 -29 -7 -34 -142 -103 -344 -175
-600 -314 -634 -343 -14 -12 -47 -72 -74 -136 -27 -62 -55 -126 -61 -141 -11
-25 -15 -26 -41 -16 -27 10 -28 13 -22 56 4 25 13 70 20 100 7 30 12 55 11 56
-1 1 -121 11 -267 23 l-265 21 -255 125 c-140 69 -298 147 -350 173 l-95 47
-2 1105 c-1 846 1 1101 10 1086 78 -126 298 -350 427 -435 101 -66 310 -176
399 -210 l53 -20 -18 22 c-11 11 -26 29 -35 39 -60 68 -129 293 -145 471 l-7
78 -51 43 c-48 40 -191 150 -246 188 -24 16 -22 17 68 17 l94 1 86 -53z m1942
38 c0 -20 -47 -251 -59 -290 -7 -21 -10 20 -10 138 l-1 167 35 0 c25 0 35 -4
35 -15z m-201 -301 l-20 -159 -42 -55 c-66 -85 -272 -332 -497 -595 l-205
-239 -3 154 c-1 85 0 165 3 176 12 51 288 371 618 717 88 92 161 166 163 164
2 -2 -5 -75 -17 -163z m71 -91 l0 -206 -105 -106 -105 -106 0 62 c0 62 0 62
71 150 39 48 76 99 84 113 7 14 18 72 24 130 13 119 21 170 27 170 2 0 4 -93
4 -207z m12 -374 c-44 -101 -81 -190 -83 -196 -2 -7 -175 -202 -384 -434
l-380 -422 -3 123 c-3 117 -1 125 22 159 56 80 319 362 805 863 52 54 96 96
98 94 2 -1 -32 -86 -75 -187z m-12 -277 l0 -108 -99 -82 c-55 -45 -102 -82
-105 -82 -3 0 -6 28 -6 61 l0 62 85 92 c47 51 92 109 100 129 9 20 17 36 20
36 3 0 5 -49 5 -108z m35 -220 c-19 -56 -57 -152 -83 -214 l-48 -112 -110 -66
c-132 -79 -243 -156 -474 -328 -96 -72 -176 -129 -178 -127 -8 8 21 122 38
150 18 30 219 230 333 333 140 126 550 472 555 467 1 -1 -14 -48 -33 -103z
m980 6 c-11 -36 -133 -266 -180 -339 -50 -77 -66 -89 -204 -158 -130 -66 -503
-233 -507 -228 -2 2 28 77 67 168 l70 164 225 154 c232 157 321 206 440 240
92 26 97 26 89 -1z m-1324 -148 c-21 -19 -64 -57 -97 -85 -84 -71 -161 -142
-303 -280 l-124 -120 108 120 c59 66 124 138 144 160 20 22 95 105 166 184
l130 144 7 -44 c6 -42 4 -46 -31 -79z m309 -205 l0 -105 -101 -50 -100 -51 3
58 3 58 67 35 c38 19 68 38 68 41 0 10 51 119 56 119 2 0 4 -47 4 -105z m7
-207 c-49 -88 -127 -193 -193 -259 -42 -43 -96 -79 -227 -152 -199 -110 -524
-283 -549 -292 -15 -6 -15 0 4 67 11 40 26 85 34 99 32 62 213 194 474 347
172 100 482 263 488 257 3 -2 -12 -32 -31 -67z m902 -45 c-26 -68 -125 -196
-227 -294 l-108 -104 -309 -106 c-171 -58 -312 -104 -314 -102 -2 1 30 59 70
129 l74 126 115 60 c63 34 133 73 155 88 61 42 125 71 300 139 88 34 176 69
195 76 54 21 61 20 49 -12z m-984 -548 c-41 -72 -75 -134 -75 -138 0 -3 32 5
72 19 39 13 73 24 75 24 2 0 3 -25 3 -55 0 -53 -1 -56 -39 -79 -22 -14 -63
-59 -93 -100 -29 -42 -56 -76 -59 -76 -3 0 -7 25 -8 56 -2 43 3 65 23 101 31
55 31 57 7 43 -11 -5 -22 -10 -25 -10 -3 0 -6 29 -6 65 0 53 6 77 29 123 40
78 103 262 90 262 -5 0 -32 -11 -59 -25 -27 -14 -52 -25 -55 -25 -3 0 -5 14
-5 31 0 24 13 45 56 91 30 33 74 86 97 117 l42 56 3 -174 2 -174 -75 -132z
m-99 80 c-40 -105 -86 -184 -130 -221 -23 -20 -113 -70 -201 -114 -211 -103
-606 -282 -612 -277 -2 3 18 54 44 113 l49 109 119 69 c66 38 257 138 425 224
168 85 309 159 314 163 19 17 16 1 -8 -66z m904 -22 c0 -18 -88 -166 -123
-208 -44 -52 -125 -96 -307 -168 -174 -68 -470 -162 -470 -148 0 4 30 47 66
96 l66 90 206 104 c201 101 384 184 487 221 56 21 75 24 75 13z m-992 -264
c-1 -19 -9 -35 -22 -44 -12 -8 -124 -61 -251 -118 -126 -58 -257 -117 -290
-132 -277 -128 -267 -124 -292 -112 -22 10 -18 13 54 45 385 169 761 350 783
378 17 20 19 18 18 -17z m-46 -181 c-72 -119 -143 -213 -215 -287 -53 -54 -82
-73 -202 -131 -209 -102 -956 -408 -954 -391 0 3 129 120 287 260 l287 253
215 98 c118 54 307 140 420 192 113 52 207 94 209 92 1 -2 -20 -40 -47 -86z
m1543 52 c74 -12 115 -28 115 -45 0 -8 -18 -29 -40 -48 -80 -68 -466 -251
-605 -286 -103 -26 -275 -55 -282 -48 -3 4 18 32 46 63 28 32 87 108 131 170
l79 111 108 28 c256 66 329 75 448 55z m-1507 -177 c-10 -13 -10 -17 0 -20 7
-3 12 -22 12 -46 0 -36 -4 -44 -30 -59 -42 -24 -42 -69 0 -100 l30 -22 0 -138
0 -138 -177 89 c-98 49 -188 91 -200 95 -33 11 -28 21 19 42 86 38 203 163
306 322 l47 73 3 -41 c2 -24 -2 -48 -10 -57z m572 -79 c-72 -70 -138 -133
-147 -138 -9 -5 -83 -6 -167 -3 -147 5 -246 22 -253 42 -1 6 61 32 140 59 78
27 169 60 202 74 51 21 345 102 353 97 1 -1 -57 -60 -128 -131z m-302 85 c-3
-30 -8 -33 -96 -65 l-93 -34 3 42 3 42 74 18 c41 10 77 20 79 23 3 3 12 5 19
5 10 0 13 -10 11 -31z m-11 -274 c9 -3 13 -55 15 -193 l3 -188 248 129 248
129 131 -50 130 -49 -83 -45 c-46 -25 -199 -105 -339 -178 -140 -73 -284 -148
-320 -167 l-65 -35 -448 233 c-247 127 -445 235 -440 239 4 3 47 24 96 45 l87
38 278 -135 277 -135 3 186 2 186 83 -3 c45 -2 88 -5 94 -7z"/>
<path d="M1267 5633 c6 -115 33 -340 49 -411 19 -82 43 -120 142 -224 113
-118 295 -268 479 -396 l32 -23 77 103 c43 57 96 125 118 152 l40 48 -45 42
c-69 64 -314 285 -383 345 -33 29 -77 68 -96 85 -138 125 -400 346 -411 346
-3 0 -3 -30 -2 -67z"/>
<path d="M3840 3434 c-213 -112 -372 -212 -481 -302 -57 -48 -148 -118 -201
-156 l-97 -69 -19 -71 c-45 -159 -93 -319 -112 -366 -11 -27 -16 -50 -11 -50
16 0 463 240 584 314 38 22 93 55 123 71 124 69 199 183 285 432 16 45 37 115
48 155 11 40 23 81 27 91 10 28 -13 20 -146 -49z m54 -85 c-50 -174 -128 -346
-188 -416 -24 -27 -92 -75 -194 -136 -170 -101 -501 -282 -506 -276 -2 2 20
83 48 180 l50 175 85 60 c46 32 132 99 190 147 58 49 147 114 196 145 92 57
327 183 332 178 2 -1 -4 -27 -13 -57z"/>
<path d="M4595 3166 c-131 -32 -158 -44 -306 -139 -36 -23 -106 -68 -155 -99
-90 -58 -90 -58 -118 -130 -26 -67 -102 -220 -198 -394 l-39 -72 25 -6 c49
-12 415 133 569 226 175 105 331 244 426 378 95 134 122 218 83 253 -29 27
-137 20 -287 -17z m251 -47 c-3 -17 -22 -58 -42 -91 -154 -254 -416 -448 -799
-593 -65 -25 -123 -45 -127 -45 -4 0 34 82 86 183 52 100 99 200 106 222 10
35 23 48 83 86 40 25 126 80 193 123 87 55 141 82 195 97 122 34 191 47 253
48 l59 1 -7 -31z"/>
<path d="M4555 2474 c-11 -2 -45 -9 -75 -15 -92 -17 -179 -49 -300 -107 -117
-57 -286 -153 -306 -175 -6 -7 -42 -70 -78 -141 -37 -71 -83 -152 -102 -181
-45 -67 -39 -85 26 -85 61 0 275 73 426 145 101 47 213 118 359 225 113 83
209 212 230 308 l7 32 -84 -1 c-46 -1 -92 -3 -103 -5z m115 -70 c-18 -45 -67
-109 -129 -167 -73 -67 -281 -212 -368 -256 -111 -55 -391 -161 -428 -161 -8
0 7 35 37 87 27 48 67 121 88 163 35 69 44 78 107 116 102 62 319 168 396 194
82 26 194 48 259 49 47 1 47 1 38 -25z"/>
<path d="M4275 1813 c-27 -1 -102 -8 -165 -14 -110 -10 -119 -13 -210 -61
-208 -110 -223 -122 -287 -233 -32 -55 -72 -122 -90 -149 -18 -26 -33 -54 -33
-62 0 -37 101 -45 241 -19 104 20 168 40 240 76 174 87 439 353 439 441 0 31
5 30 -135 21z m50 -92 c-40 -59 -200 -210 -284 -269 -89 -62 -196 -105 -316
-126 -85 -15 -165 -21 -165 -12 0 6 137 235 150 251 12 15 170 110 247 148 40
21 77 29 165 37 120 11 220 17 227 13 2 -2 -8 -21 -24 -42z"/>
<path d="M1188 3585 c-9 -9 19 -199 42 -282 12 -45 39 -115 59 -155 36 -70 42
-76 152 -152 123 -85 315 -184 329 -170 5 5 10 103 12 217 l3 208 -105 55
c-287 151 -428 232 -466 266 -11 10 -23 16 -26 13z"/>
<path d="M353 3283 c-9 -24 16 -136 45 -197 102 -218 427 -422 850 -534 39
-11 72 -18 72 -17 0 1 -7 22 -15 45 -8 24 -27 90 -40 147 -14 58 -37 122 -52
146 -62 98 -282 276 -440 355 -68 35 -141 49 -307 60 -84 6 -109 5 -113 -5z"/>
<path d="M1322 2827 c12 -191 128 -356 322 -452 38 -20 84 -35 103 -35 31 0
34 2 26 23 -9 25 -10 307 0 352 l6 31 -67 12 c-90 17 -199 56 -306 108 l-88
43 4 -82z"/>
<path d="M470 2731 l-115 -17 3 -39 c10 -124 141 -269 327 -362 162 -81 402
-151 645 -189 l44 -6 -31 35 c-40 45 -60 110 -69 219 l-6 87 -57 11 c-191 36
-407 129 -525 226 -36 30 -73 53 -83 53 -10 -1 -70 -9 -133 -18z"/>
<path d="M1345 2388 c17 -106 98 -230 212 -321 62 -49 170 -113 178 -105 2 2
5 68 6 147 l2 144 -44 13 c-24 8 -113 47 -197 89 -85 41 -156 75 -159 75 -3 0
-2 -19 2 -42z"/>
<path d="M465 2199 c36 -126 319 -309 648 -420 98 -33 367 -99 404 -99 l22 0
-23 35 c-13 19 -44 85 -67 146 -48 123 -38 114 -179 169 -250 99 -408 163
-424 171 -11 6 -102 14 -204 17 l-184 5 7 -24z"/>
<path d="M1534 1893 c4 -32 18 -82 32 -113 28 -62 95 -155 122 -169 16 -8 17
-5 14 22 -1 18 1 75 6 127 10 107 7 130 -17 130 -9 0 -47 14 -86 30 -38 17
-71 30 -74 30 -2 0 -1 -26 3 -57z"/>
<path d="M746 1709 c25 -138 185 -273 441 -373 140 -55 269 -89 348 -90 l60
-1 -3 65 c-2 36 4 94 12 130 23 94 21 110 -9 110 -70 0 -277 59 -410 118 -81
35 -197 58 -343 68 l-102 7 6 -34z"/>
</g>
</svg>
