<svg xmlns="http://www.w3.org/2000/svg" xmlns:xlink="http://www.w3.org/1999/xlink" width="100" zoomAndPan="magnify" viewBox="0 0 375 374.999991" height="100" preserveAspectRatio="xMidYMid meet" version="1.0"><defs><g/><clipPath id="67c8b46cc9"><path d="M 157.347656 199.839844 L 368 199.839844 L 368 251.527344 L 157.347656 251.527344 Z M 157.347656 199.839844 " clip-rule="nonzero"/></clipPath></defs><g fill="#ffffff" fill-opacity="1"><g transform="translate(5.720844, 252.162048)"><g><path d="M 120.464844 -3.710938 L 105.40625 -67.214844 L 80.09375 -171.96875 C 79.65625 -173.496094 78.5625 -174.585938 77.035156 -174.585938 L 43.429688 -174.585938 C 41.902344 -174.585938 40.589844 -173.496094 40.15625 -171.96875 L 15.058594 -67.214844 L 0 -3.710938 C -0.21875 -2.835938 0 -1.746094 0.65625 -1.089844 C 1.089844 -0.4375 2.183594 0 3.054688 0 L 35.789062 0 C 36.226562 0 36.664062 -0.21875 37.101562 -0.65625 C 37.535156 -0.871094 37.753906 -1.308594 37.972656 -1.746094 C 37.972656 -1.746094 38.191406 -2.402344 38.191406 -2.617188 L 47.355469 -53.03125 C 48.882812 -61.105469 50.847656 -63.507812 59.578125 -63.507812 C 59.578125 -63.507812 60.015625 -63.722656 60.015625 -63.722656 C 60.015625 -63.722656 60.234375 -63.507812 60.234375 -63.507812 L 74.199219 -63.507812 C 74.417969 -63.507812 74.855469 -63.722656 75.074219 -63.722656 C 75.507812 -63.941406 75.945312 -64.378906 76.164062 -64.597656 C 76.382812 -65.035156 76.820312 -65.46875 76.820312 -65.90625 L 76.820312 -67.214844 L 63.289062 -140.542969 C 63.070312 -141.851562 61.980469 -142.945312 60.234375 -142.945312 C 58.703125 -142.945312 57.394531 -141.851562 57.175781 -140.542969 L 47.136719 -86.640625 C 46.921875 -84.894531 48.011719 -83.582031 49.757812 -83.148438 C 51.503906 -82.929688 53.25 -83.800781 53.46875 -85.546875 L 60.234375 -122.648438 L 70.054688 -69.835938 L 59.578125 -69.835938 C 46.921875 -69.835938 42.992188 -63.722656 41.246094 -54.121094 L 32.515625 -6.109375 L 6.984375 -6.109375 L 21.386719 -65.6875 L 45.828125 -168.257812 L 74.636719 -168.257812 L 99.296875 -65.90625 L 113.480469 -6.109375 L 88.167969 -6.109375 L 84.238281 -27.933594 L 82.054688 -39.9375 C 82.054688 -41.464844 80.308594 -42.773438 78.5625 -42.554688 L 62.632812 -42.554688 C 60.886719 -42.554688 59.359375 -41.027344 59.359375 -39.28125 C 59.359375 -37.535156 60.886719 -36.226562 62.632812 -36.226562 L 76.382812 -36.226562 L 78.128906 -26.625 L 82.710938 -2.617188 C 82.710938 -2.402344 82.929688 -1.746094 82.929688 -1.746094 C 83.148438 -1.308594 83.367188 -0.871094 83.800781 -0.65625 C 84.019531 -0.4375 84.675781 0 84.894531 0 L 117.628906 0 C 118.5 0 119.59375 -0.4375 120.027344 -1.089844 C 120.464844 -1.746094 120.464844 -3.710938 120.464844 -3.710938 Z M 120.464844 -3.710938 "/></g></g></g><g clip-path="url(#67c8b46cc9)"><path fill="#ffffff" d="M 359.382812 251.941406 L 165.792969 251.941406 C 161.199219 251.941406 157.472656 248.210938 157.472656 243.621094 L 157.472656 208.160156 C 157.472656 203.570312 161.199219 199.839844 165.792969 199.839844 L 359.382812 199.839844 C 363.972656 199.839844 367.738281 203.570312 367.738281 208.160156 L 367.738281 243.585938 C 367.738281 248.210938 363.972656 251.941406 359.382812 251.941406 Z M 165.792969 201.53125 C 162.132812 201.53125 159.128906 204.503906 159.128906 208.195312 L 159.128906 243.621094 C 159.128906 247.28125 162.097656 250.285156 165.792969 250.285156 L 359.382812 250.285156 C 363.042969 250.285156 366.046875 247.316406 366.046875 243.621094 L 366.046875 208.160156 C 366.046875 204.503906 363.074219 201.5 359.382812 201.5 L 165.792969 201.5 Z M 165.792969 201.53125 " fill-opacity="1" fill-rule="nonzero"/></g><g fill="#ffffff" fill-opacity="1"><g transform="translate(167.662953, 235.831744)"><g><path d="M 20.25 -10.546875 C 20.25 -8.410156 19.832031 -6.539062 19 -4.9375 C 18.164062 -3.34375 16.988281 -2.117188 15.46875 -1.265625 C 13.945312 -0.421875 12.1875 0 10.1875 0 L 2.46875 0 L 2.46875 -20.65625 L 9.296875 -20.65625 C 12.796875 -20.65625 15.492188 -19.773438 17.390625 -18.015625 C 19.296875 -16.265625 20.25 -13.773438 20.25 -10.546875 Z M 17.4375 -10.546875 C 17.4375 -13.109375 16.734375 -15.0625 15.328125 -16.40625 C 13.929688 -17.75 11.898438 -18.421875 9.234375 -18.421875 L 5.265625 -18.421875 L 5.265625 -2.25 L 9.875 -2.25 C 11.382812 -2.25 12.710938 -2.578125 13.859375 -3.234375 C 15.015625 -3.898438 15.898438 -4.859375 16.515625 -6.109375 C 17.128906 -7.359375 17.4375 -8.835938 17.4375 -10.546875 Z M 17.4375 -10.546875 "/></g></g></g><g fill="#ffffff" fill-opacity="1"><g transform="translate(189.346726, 235.831744)"><g><path d="M 21.921875 -10.421875 C 21.921875 -8.265625 21.503906 -6.375 20.671875 -4.75 C 19.847656 -3.125 18.664062 -1.875 17.125 -1 C 15.582031 -0.132812 13.757812 0.296875 11.65625 0.296875 C 9.53125 0.296875 7.695312 -0.128906 6.15625 -0.984375 C 4.625 -1.847656 3.453125 -3.09375 2.640625 -4.71875 C 1.828125 -6.351562 1.421875 -8.253906 1.421875 -10.421875 C 1.421875 -13.722656 2.320312 -16.304688 4.125 -18.171875 C 5.9375 -20.035156 8.457031 -20.96875 11.6875 -20.96875 C 13.789062 -20.96875 15.613281 -20.550781 17.15625 -19.71875 C 18.695312 -18.882812 19.875 -17.671875 20.6875 -16.078125 C 21.507812 -14.484375 21.921875 -12.597656 21.921875 -10.421875 Z M 19.0625 -10.421875 C 19.0625 -12.992188 18.414062 -15.015625 17.125 -16.484375 C 15.84375 -17.953125 14.03125 -18.6875 11.6875 -18.6875 C 9.320312 -18.6875 7.492188 -17.960938 6.203125 -16.515625 C 4.910156 -15.066406 4.265625 -13.035156 4.265625 -10.421875 C 4.265625 -7.835938 4.914062 -5.785156 6.21875 -4.265625 C 7.53125 -2.742188 9.34375 -1.984375 11.65625 -1.984375 C 14.039062 -1.984375 15.867188 -2.71875 17.140625 -4.1875 C 18.421875 -5.65625 19.0625 -7.734375 19.0625 -10.421875 Z M 19.0625 -10.421875 "/></g></g></g><g fill="#ffffff" fill-opacity="1"><g transform="translate(212.701866, 235.831744)"><g><path d="M 18.65625 -5.703125 C 18.65625 -3.796875 17.910156 -2.316406 16.421875 -1.265625 C 14.929688 -0.222656 12.832031 0.296875 10.125 0.296875 C 5.082031 0.296875 2.160156 -1.453125 1.359375 -4.953125 L 4.078125 -5.5 C 4.390625 -4.257812 5.050781 -3.347656 6.0625 -2.765625 C 7.082031 -2.179688 8.46875 -1.890625 10.21875 -1.890625 C 12.03125 -1.890625 13.425781 -2.195312 14.40625 -2.8125 C 15.382812 -3.4375 15.875 -4.351562 15.875 -5.5625 C 15.875 -6.226562 15.71875 -6.769531 15.40625 -7.1875 C 15.101562 -7.613281 14.671875 -7.960938 14.109375 -8.234375 C 13.554688 -8.515625 12.894531 -8.742188 12.125 -8.921875 C 11.351562 -9.109375 10.5 -9.3125 9.5625 -9.53125 C 7.925781 -9.894531 6.6875 -10.253906 5.84375 -10.609375 C 5 -10.972656 4.332031 -11.378906 3.84375 -11.828125 C 3.351562 -12.273438 2.976562 -12.796875 2.71875 -13.390625 C 2.457031 -13.984375 2.328125 -14.664062 2.328125 -15.4375 C 2.328125 -17.207031 3.003906 -18.570312 4.359375 -19.53125 C 5.710938 -20.488281 7.648438 -20.96875 10.171875 -20.96875 C 12.523438 -20.96875 14.320312 -20.609375 15.5625 -19.890625 C 16.800781 -19.171875 17.671875 -17.945312 18.171875 -16.21875 L 15.40625 -15.734375 C 15.101562 -16.828125 14.523438 -17.617188 13.671875 -18.109375 C 12.828125 -18.609375 11.648438 -18.859375 10.140625 -18.859375 C 8.492188 -18.859375 7.234375 -18.582031 6.359375 -18.03125 C 5.492188 -17.488281 5.0625 -16.675781 5.0625 -15.59375 C 5.0625 -14.957031 5.226562 -14.429688 5.5625 -14.015625 C 5.90625 -13.597656 6.394531 -13.242188 7.03125 -12.953125 C 7.664062 -12.660156 8.929688 -12.304688 10.828125 -11.890625 C 11.460938 -11.742188 12.09375 -11.59375 12.71875 -11.4375 C 13.351562 -11.289062 13.957031 -11.113281 14.53125 -10.90625 C 15.101562 -10.695312 15.640625 -10.445312 16.140625 -10.15625 C 16.648438 -9.875 17.085938 -9.523438 17.453125 -9.109375 C 17.828125 -8.703125 18.117188 -8.21875 18.328125 -7.65625 C 18.546875 -7.101562 18.65625 -6.453125 18.65625 -5.703125 Z M 18.65625 -5.703125 "/></g></g></g><g fill="#ffffff" fill-opacity="1"><g transform="translate(232.728934, 235.831744)"><g/></g></g><g fill="#ffffff" fill-opacity="1"><g transform="translate(241.071103, 235.831744)"><g><path d="M 17.109375 0 L 14.75 -6.046875 L 5.34375 -6.046875 L 2.96875 0 L 0.0625 0 L 8.484375 -20.65625 L 11.671875 -20.65625 L 19.96875 0 Z M 10.046875 -18.546875 L 9.90625 -18.140625 C 9.664062 -17.328125 9.304688 -16.285156 8.828125 -15.015625 L 6.1875 -8.21875 L 13.921875 -8.21875 L 11.265625 -15.046875 C 10.984375 -15.722656 10.707031 -16.484375 10.4375 -17.328125 Z M 10.046875 -18.546875 "/></g></g></g><g fill="#ffffff" fill-opacity="1"><g transform="translate(261.098172, 235.831744)"><g><path d="M 15.859375 0 L 4.8125 -17.59375 L 4.890625 -16.171875 L 4.953125 -13.71875 L 4.953125 0 L 2.46875 0 L 2.46875 -20.65625 L 5.71875 -20.65625 L 16.890625 -2.953125 C 16.773438 -4.867188 16.71875 -6.253906 16.71875 -7.109375 L 16.71875 -20.65625 L 19.234375 -20.65625 L 19.234375 0 Z M 15.859375 0 "/></g></g></g><g fill="#ffffff" fill-opacity="1"><g transform="translate(282.781945, 235.831744)"><g><path d="M 2.765625 0 L 2.765625 -20.65625 L 5.578125 -20.65625 L 5.578125 0 Z M 2.765625 0 "/></g></g></g><g fill="#ffffff" fill-opacity="1"><g transform="translate(291.124114, 235.831744)"><g><path d="M 20.03125 0 L 20.03125 -13.78125 C 20.03125 -15.3125 20.070312 -16.78125 20.15625 -18.1875 C 19.675781 -16.4375 19.25 -15.066406 18.875 -14.078125 L 13.53125 0 L 11.5625 0 L 6.15625 -14.078125 L 5.34375 -16.5625 L 4.859375 -18.1875 L 4.890625 -16.5625 L 4.953125 -13.78125 L 4.953125 0 L 2.46875 0 L 2.46875 -20.65625 L 6.140625 -20.65625 L 11.640625 -6.328125 C 11.835938 -5.753906 12.023438 -5.132812 12.203125 -4.46875 C 12.390625 -3.8125 12.507812 -3.335938 12.5625 -3.046875 C 12.644531 -3.441406 12.8125 -4.035156 13.0625 -4.828125 C 13.3125 -5.628906 13.476562 -6.128906 13.5625 -6.328125 L 18.953125 -20.65625 L 22.546875 -20.65625 L 22.546875 0 Z M 20.03125 0 "/></g></g></g><g fill="#ffffff" fill-opacity="1"><g transform="translate(316.135958, 235.831744)"><g><path d="M 2.46875 0 L 2.46875 -20.65625 L 18.140625 -20.65625 L 18.140625 -18.375 L 5.265625 -18.375 L 5.265625 -11.75 L 17.265625 -11.75 L 17.265625 -9.484375 L 5.265625 -9.484375 L 5.265625 -2.28125 L 18.734375 -2.28125 L 18.734375 0 Z M 2.46875 0 "/></g></g></g><g fill="#ffffff" fill-opacity="1"><g transform="translate(336.163027, 235.831744)"><g><path d="M 18.65625 -5.703125 C 18.65625 -3.796875 17.910156 -2.316406 16.421875 -1.265625 C 14.929688 -0.222656 12.832031 0.296875 10.125 0.296875 C 5.082031 0.296875 2.160156 -1.453125 1.359375 -4.953125 L 4.078125 -5.5 C 4.390625 -4.257812 5.050781 -3.347656 6.0625 -2.765625 C 7.082031 -2.179688 8.46875 -1.890625 10.21875 -1.890625 C 12.03125 -1.890625 13.425781 -2.195312 14.40625 -2.8125 C 15.382812 -3.4375 15.875 -4.351562 15.875 -5.5625 C 15.875 -6.226562 15.71875 -6.769531 15.40625 -7.1875 C 15.101562 -7.613281 14.671875 -7.960938 14.109375 -8.234375 C 13.554688 -8.515625 12.894531 -8.742188 12.125 -8.921875 C 11.351562 -9.109375 10.5 -9.3125 9.5625 -9.53125 C 7.925781 -9.894531 6.6875 -10.253906 5.84375 -10.609375 C 5 -10.972656 4.332031 -11.378906 3.84375 -11.828125 C 3.351562 -12.273438 2.976562 -12.796875 2.71875 -13.390625 C 2.457031 -13.984375 2.328125 -14.664062 2.328125 -15.4375 C 2.328125 -17.207031 3.003906 -18.570312 4.359375 -19.53125 C 5.710938 -20.488281 7.648438 -20.96875 10.171875 -20.96875 C 12.523438 -20.96875 14.320312 -20.609375 15.5625 -19.890625 C 16.800781 -19.171875 17.671875 -17.945312 18.171875 -16.21875 L 15.40625 -15.734375 C 15.101562 -16.828125 14.523438 -17.617188 13.671875 -18.109375 C 12.828125 -18.609375 11.648438 -18.859375 10.140625 -18.859375 C 8.492188 -18.859375 7.234375 -18.582031 6.359375 -18.03125 C 5.492188 -17.488281 5.0625 -16.675781 5.0625 -15.59375 C 5.0625 -14.957031 5.226562 -14.429688 5.5625 -14.015625 C 5.90625 -13.597656 6.394531 -13.242188 7.03125 -12.953125 C 7.664062 -12.660156 8.929688 -12.304688 10.828125 -11.890625 C 11.460938 -11.742188 12.09375 -11.59375 12.71875 -11.4375 C 13.351562 -11.289062 13.957031 -11.113281 14.53125 -10.90625 C 15.101562 -10.695312 15.640625 -10.445312 16.140625 -10.15625 C 16.648438 -9.875 17.085938 -9.523438 17.453125 -9.109375 C 17.828125 -8.703125 18.117188 -8.21875 18.328125 -7.65625 C 18.546875 -7.101562 18.65625 -6.453125 18.65625 -5.703125 Z M 18.65625 -5.703125 "/></g></g></g><g fill="#ffffff" fill-opacity="1"><g transform="translate(131.800805, 183.843261)"><g><path d="M 12.8125 0 L 12.8125 -4.9375 L 20.859375 -4.9375 L 20.859375 -47.046875 L 7.640625 -47.046875 L 7.640625 -30.984375 L 1.203125 -30.984375 L 1.203125 -51.984375 L 48.40625 -51.984375 L 48.40625 -30.984375 L 41.9375 -30.984375 L 41.9375 -47.046875 L 29.015625 -47.046875 L 29.015625 -4.9375 L 37.28125 -4.9375 L 37.28125 0 Z M 12.8125 0 "/></g></g></g><g fill="#ffffff" fill-opacity="1"><g transform="translate(181.364113, 183.843261)"><g><path d="M 27.46875 0.9375 C 24.332031 0.9375 21.40625 0.4375 18.6875 -0.5625 C 15.96875 -1.570312 13.628906 -2.960938 11.671875 -4.734375 C 9.785156 -6.460938 8.164062 -8.484375 6.8125 -10.796875 C 5.46875 -13.109375 4.488281 -15.554688 3.875 -18.140625 C 3.226562 -20.691406 2.90625 -23.328125 2.90625 -26.046875 C 2.90625 -31.671875 4.207031 -36.75 6.8125 -41.28125 C 8.1875 -43.675781 9.832031 -45.726562 11.75 -47.4375 C 13.675781 -49.15625 15.953125 -50.523438 18.578125 -51.546875 C 21.347656 -52.554688 24.3125 -53.0625 27.46875 -53.0625 C 30.59375 -53.0625 33.519531 -52.550781 36.25 -51.53125 C 38.976562 -50.519531 41.3125 -49.128906 43.25 -47.359375 C 45.132812 -45.628906 46.742188 -43.609375 48.078125 -41.296875 C 49.421875 -38.984375 50.414062 -36.535156 51.0625 -33.953125 C 51.675781 -31.378906 51.984375 -28.742188 51.984375 -26.046875 C 51.984375 -20.429688 50.6875 -15.351562 48.09375 -10.8125 C 46.707031 -8.414062 45.054688 -6.363281 43.140625 -4.65625 C 41.234375 -2.957031 38.96875 -1.613281 36.34375 -0.625 C 33.625 0.414062 30.664062 0.9375 27.46875 0.9375 Z M 27.46875 -3.90625 C 29.882812 -3.90625 32.109375 -4.519531 34.140625 -5.75 C 36.179688 -6.976562 37.859375 -8.664062 39.171875 -10.8125 C 40.460938 -12.882812 41.445312 -15.226562 42.125 -17.84375 C 42.800781 -20.457031 43.140625 -23.171875 43.140625 -25.984375 C 43.140625 -28.234375 42.925781 -30.429688 42.5 -32.578125 C 42.082031 -34.722656 41.4375 -36.710938 40.5625 -38.546875 C 38.644531 -42.609375 36.117188 -45.421875 32.984375 -46.984375 C 31.304688 -47.804688 29.46875 -48.21875 27.46875 -48.21875 C 25.050781 -48.21875 22.828125 -47.601562 20.796875 -46.375 C 18.765625 -45.144531 17.082031 -43.457031 15.75 -41.3125 C 14.457031 -39.21875 13.46875 -36.863281 12.78125 -34.25 C 12.09375 -31.632812 11.75 -28.921875 11.75 -26.109375 C 11.75 -21.347656 12.625 -17.132812 14.375 -13.46875 C 15.289062 -11.488281 16.363281 -9.800781 17.59375 -8.40625 C 18.832031 -7.019531 20.28125 -5.929688 21.9375 -5.140625 C 23.644531 -4.316406 25.488281 -3.90625 27.46875 -3.90625 Z M 27.46875 -3.90625 "/></g></g></g><g fill="#ffffff" fill-opacity="1"><g transform="translate(236.246411, 183.843261)"><g><path d="M 27.46875 0.9375 C 23.96875 0.9375 20.664062 0.210938 17.5625 -1.234375 C 14.46875 -2.691406 11.835938 -4.6875 9.671875 -7.21875 C 7.523438 -9.726562 5.859375 -12.65625 4.671875 -16 C 3.492188 -19.351562 2.90625 -22.863281 2.90625 -26.53125 C 2.90625 -30.3125 3.507812 -33.835938 4.71875 -37.109375 C 5.925781 -40.378906 7.632812 -43.195312 9.84375 -45.5625 C 12.082031 -47.9375 14.785156 -49.78125 17.953125 -51.09375 C 21.117188 -52.40625 24.539062 -53.0625 28.21875 -53.0625 C 31.425781 -53.0625 34.472656 -52.382812 37.359375 -51.03125 C 40.253906 -49.6875 42.632812 -47.796875 44.5 -45.359375 C 46.382812 -42.890625 47.328125 -40.125 47.328125 -37.0625 C 47.328125 -36.007812 47.046875 -35 46.484375 -34.03125 C 45.921875 -33.0625 45.117188 -32.273438 44.078125 -31.671875 C 43.046875 -31.078125 41.875 -30.78125 40.5625 -30.78125 C 38.78125 -30.78125 37.351562 -31.296875 36.28125 -32.328125 C 35.21875 -33.367188 34.6875 -34.765625 34.6875 -36.515625 C 34.6875 -37.640625 34.992188 -38.625 35.609375 -39.46875 C 36.234375 -40.3125 37.015625 -40.953125 37.953125 -41.390625 C 38.898438 -41.828125 39.859375 -42.046875 40.828125 -42.046875 C 39.660156 -43.859375 37.953125 -45.335938 35.703125 -46.484375 C 33.453125 -47.640625 30.9375 -48.21875 28.15625 -48.21875 C 25.039062 -48.21875 22.257812 -47.320312 19.8125 -45.53125 C 17.363281 -43.738281 15.453125 -41.1875 14.078125 -37.875 C 12.703125 -34.570312 12.015625 -30.742188 12.015625 -26.390625 C 12.015625 -23.859375 12.414062 -21.363281 13.21875 -18.90625 C 14.03125 -16.457031 15.160156 -14.21875 16.609375 -12.1875 C 18.109375 -10.113281 19.992188 -8.472656 22.265625 -7.265625 C 24.535156 -6.054688 26.992188 -5.453125 29.640625 -5.453125 C 31.617188 -5.453125 33.5 -5.828125 35.28125 -6.578125 C 37.070312 -7.328125 38.597656 -8.335938 39.859375 -9.609375 C 41.085938 -10.828125 42.113281 -12.148438 42.9375 -13.578125 C 43.769531 -15.003906 44.378906 -16.488281 44.765625 -18.03125 L 49.40625 -15.78125 C 48.15625 -10.414062 45.660156 -6.285156 41.921875 -3.390625 C 38.179688 -0.503906 33.363281 0.9375 27.46875 0.9375 Z M 27.46875 0.9375 "/></g></g></g><g fill="#ffffff" fill-opacity="1"><g transform="translate(286.224187, 183.843261)"><g><path d="M 0.28125 0 L 0.28125 -4.9375 L 6.5 -4.9375 L 24.703125 -51.984375 L 32.890625 -51.984375 L 51.375 -4.9375 L 57.171875 -4.9375 L 57.171875 0 L 34.828125 0 L 34.828125 -4.9375 L 42.53125 -4.9375 L 37.71875 -17.40625 L 17.75 -17.40625 L 13.234375 -4.9375 L 21.9375 -4.9375 L 21.9375 0 Z M 19.375 -21.796875 L 36 -21.796875 L 27.46875 -45.21875 Z M 19.375 -21.796875 "/></g></g></g></svg>